Coordinates
version=1
nRows=8
nColumns=40
inDegrees=yes

Units are S.I. units (second, meters, Newtons, ...)
Angles are in degrees.

endheader
time	pelvis_tilt	pelvis_list	pelvis_rotation	pelvis_tx	pelvis_ty	pelvis_tz	hip_flexion_r	hip_adduction_r	hip_rotation_r	knee_angle_r	knee_angle_r_beta	ankle_angle_r	subtalar_angle_r	mtp_angle_r	hip_flexion_l	hip_adduction_l	hip_rotation_l	knee_angle_l	knee_angle_l_beta	ankle_angle_l	subtalar_angle_l	mtp_angle_l	lumbar_extension	lumbar_bending	lumbar_rotation	arm_flex_r	arm_add_r	arm_rot_r	elbow_flex_r	pro_sup_r	wrist_flex_r	wrist_dev_r	arm_flex_l	arm_add_l	arm_rot_l	elbow_flex_l	pro_sup_l	wrist_flex_l	wrist_dev_l
     41.67500000	     -5.26418027	     -4.53584737	      8.92565117	      0.85252025	      0.92405244	      0.50464057	      2.42245871	      4.23049872	    -19.65313748	     10.11452960	     10.11452960	     14.34397783	     -1.14478495	     -6.51137393	     30.58256983	     -5.56403404	     -2.78842029	     16.17475993	     16.17475993	      7.37447594	     -3.20304737	      5.17826179	     -8.77416330	      6.52641730	      1.94146789	     35.69469837	    -16.98679574	    -13.85390732	     61.48437321	     45.43093881	      0.00000000	      0.00000000	     -8.27628957	     -6.75859231	     -4.36723129	     25.28153118	     45.91714448	      0.00000000	      0.00000000
     41.68821429	     -5.15310789	     -4.74997692	      8.69184748	      0.85426175	      0.92292437	      0.50382952	      1.47379670	      4.56671476	    -19.62997044	      9.60017713	      9.60017713	     14.71274012	     -0.34489579	     -6.13556859	     30.45124736	     -5.82405255	     -2.47133655	     17.41827701	     17.41827701	      6.56156519	     -4.00462009	      4.49143700	     -8.54969831	      6.62244757	      2.26046164	     34.57504188	    -16.82950364	    -14.17957634	     61.27060665	     45.44734543	      0.00000000	      0.00000000	     -7.91173978	     -6.85000471	     -4.55683308	     25.78499166	     45.95592517	      0.00000000	      0.00000000
     41.70142857	     -5.12260807	     -4.72573333	      8.38498407	      0.85593267	      0.92187077	      0.50291798	      0.84840567	      4.53172445	    -19.35658490	      9.62628539	      9.62628539	     15.13445190	     -0.12808113	     -6.16774912	     30.05657894	     -5.88022736	     -2.53322100	     18.07348577	     18.07348577	      5.76580777	     -4.22610080	      4.52805992	     -8.33717093	      6.49218574	      2.21269714	     33.57043236	    -16.33901780	    -14.12511592	     60.98236877	     45.45009589	      0.00000000	      0.00000000	     -7.57601914	     -6.94562774	     -4.60576132	     25.99945447	     45.96990127	      0.00000000	      0.00000000
     41.71464286	     -5.04800426	     -4.76551205	      8.07072814	      0.85777156	      0.92088830	      0.50180829	      0.19221712	      4.49806838	    -19.47868215	      9.77092601	      9.77092601	     16.15472530	      0.97650227	     -4.56981346	     29.58058150	     -5.90155209	     -2.13434086	     18.52536597	     18.52536597	      4.03857294	     -5.44068818	      2.41977253	     -8.20524597	      6.41922234	      2.72282343	     32.01404948	    -16.24695046	    -15.24978523	     61.10203306	     45.48754234	      0.00000000	      0.00000000	     -7.22203671	     -6.99730364	     -5.34905500	     27.15066246	     46.09233980	      0.00000000	      0.00000000
     41.72785714	     -5.03719091	     -4.71909257	      7.75942859	      0.85955284	      0.91995649	      0.50066709	     -0.35858794	      4.38744946	    -19.15695824	      9.90698069	      9.90698069	     16.51404055	      1.07741310	     -4.60363965	     29.31150775	     -5.91750887	     -2.09735245	     19.26698845	     19.26698845	      3.50904665	     -5.74741164	      2.41824464	     -7.97902708	      6.25989873	      2.61227096	     30.87696308	    -15.76122543	    -15.10593032	     60.62838509	     45.49261875	      0.00000000	      0.00000000	     -6.74626414	     -7.07589198	     -5.39419090	     27.35581678	     46.10698373	      0.00000000	      0.00000000
     41.74107143	     -5.07652045	     -4.66786215	      7.42991769	      0.86120210	      0.91912735	      0.49932262	     -0.67560222	      4.17957416	    -18.82729756	     10.39219785	     10.39219785	     17.02416283	      1.11494535	     -4.17251120	     29.12971189	     -5.83422024	     -1.72444048	     19.98471305	     19.98471305	      2.87935413	     -6.79070402	      2.12096002	     -7.72372813	      6.10930081	      2.90513917	     29.51024626	    -15.78612170	    -15.04065142	     59.61786604	     45.52043443	      0.00000000	      0.00000000	     -6.06414148	     -7.11470829	     -5.68971129	     27.83834444	     46.15945661	      0.00000000	      0.00000000
     41.75428571	     -4.98408345	     -4.55079315	      7.12783095	      0.86292891	      0.91873937	      0.49784808	     -1.16015391	      3.91065795	    -18.51894783	     10.82294338	     10.82294338	     17.28188693	      1.10567742	     -4.14140751	     28.83702662	     -5.75470787	     -1.61643163	     20.76933130	     20.76933130	      2.69848237	     -7.37125456	      2.00749183	     -7.67200837	      5.91243036	      2.79369311	     28.19238429	    -15.35401896	    -14.88649775	     58.94741142	     45.53105035	      0.00000000	      0.00000000	     -5.47601989	     -7.20618566	     -5.77351057	     28.13857714	     46.18063426	      0.00000000	      0.00000000
     41.76750000	     -5.02461921	     -4.44712589	      6.79905694	      0.86437670	      0.91841282	      0.49616655	     -1.17137351	      3.51963913	    -18.14016913	     11.86441795	     11.86441795	     17.68546850	      0.80532027	     -3.92618514	     28.66484109	     -5.57371328	     -1.17698810	     21.45792737	     21.45792737	      2.52727690	     -8.64886490	      1.96410085	     -7.47734881	      5.73347507	      3.09684709	     26.68986142	    -15.43440122	    -14.69552802	     57.61263755	     45.56375356	      0.00000000	      0.00000000	     -4.58186734	     -7.16643365	     -6.00748187	     28.71770793	     46.22549744	      0.00000000	      0.00000000
